<?xml version="1.0" standalone="no"?>
<!DOCTYPE svg PUBLIC "-//W3C//DTD SVG 20010904//EN"
 "http://www.w3.org/TR/2001/REC-SVG-20010904/DTD/svg10.dtd">
<svg version="1.0" xmlns="http://www.w3.org/2000/svg"
 width="1080.000000pt" height="1080.000000pt" viewBox="0 0 1080.000000 1080.000000"
 preserveAspectRatio="xMidYMid meet">
<metadata>
Created by potrace 1.16, written by Peter Selinger 2001-2019
</metadata>
<g transform="translate(0.000000,1080.000000) scale(0.100000,-0.100000)"
fill="#000000" stroke="none">
<path d="M3135 7433 c-104 -12 -227 -37 -297 -59 -231 -73 -450 -202 -628
-371 l-70 -66 -82 32 c-100 40 -275 86 -386 102 -135 19 -376 7 -492 -25 -459
-125 -749 -507 -789 -1038 -84 -1124 949 -2379 2032 -2467 482 -40 877 176
1077 586 l50 102 86 51 c296 180 539 453 704 795 96 199 141 336 181 550 33
174 33 480 0 645 -30 152 -54 234 -107 357 -161 373 -428 628 -785 747 -148
50 -363 75 -494 59z m270 -128 c628 -94 1054 -689 1022 -1425 -41 -921 -750
-1700 -1548 -1700 -445 0 -834 255 -1036 679 -103 217 -147 426 -147 691 2
474 189 944 511 1280 199 208 385 332 621 414 201 70 387 89 577 61z"/>
<path d="M5500 6155 l0 -395 80 0 80 0 0 395 0 395 -80 0 -80 0 0 -395z"/>
<path d="M5836 6534 c-75 -74 34 -179 118 -113 33 26 36 79 6 109 -25 25 -101
28 -124 4z"/>
<path d="M6692 6534 c-16 -11 -22 -25 -22 -54 0 -59 40 -88 105 -76 39 8 53
22 61 62 9 47 -26 84 -80 84 -23 0 -52 -7 -64 -16z"/>
<path d="M4947 6468 c-22 -60 -247 -700 -247 -705 0 -1 38 -3 84 -3 l84 0 22
73 c11 39 23 80 26 90 5 16 18 17 142 15 l136 -3 27 -85 26 -85 86 -3 86 -3
-44 123 c-24 68 -83 237 -132 375 l-88 253 -96 0 -96 0 -16 -42z m163 -245
c24 -79 41 -145 38 -148 -3 -3 -46 -4 -95 -3 l-89 3 45 152 c25 84 48 149 51
145 4 -4 26 -71 50 -149z"/>
<path d="M6272 6321 c-94 -33 -145 -100 -161 -216 -18 -124 14 -244 79 -299
67 -56 238 -74 318 -32 31 16 32 18 32 81 l0 64 -42 -19 c-27 -12 -66 -20
-104 -20 -53 0 -65 4 -88 27 -33 33 -41 61 -41 143 1 76 23 130 62 151 32 17
94 15 148 -4 l41 -15 23 60 c13 32 21 61 19 63 -2 2 -30 11 -63 20 -78 20
-158 19 -223 -4z"/>
<path d="M7089 6321 c-83 -27 -82 -25 -53 -82 19 -39 29 -49 42 -44 48 19 144
37 167 31 39 -10 65 -41 65 -80 l0 -33 -104 -5 c-175 -8 -246 -60 -246 -183 0
-101 56 -165 152 -173 72 -6 132 12 178 54 l39 35 12 -40 12 -41 54 0 53 0 0
220 c0 236 -5 264 -51 307 -58 53 -209 69 -320 34z m221 -338 c0 -56 -31 -100
-80 -113 -70 -19 -110 3 -110 59 0 26 7 44 23 58 30 28 42 31 110 32 l57 1 0
-37z"/>
<path d="M5820 6045 l0 -285 75 0 75 0 0 285 0 285 -75 0 -75 0 0 -285z"/>
<path d="M6670 6045 l0 -285 80 0 80 0 0 285 0 285 -80 0 -80 0 0 -285z"/>
<path d="M7010 4705 l0 -395 74 0 73 0 5 179 c6 214 16 247 87 270 34 11 47
11 73 0 51 -21 58 -55 58 -264 l0 -185 81 0 81 0 -4 218 c-3 172 -7 225 -20
254 -30 68 -93 106 -179 107 -61 1 -107 -15 -146 -52 l-33 -31 0 147 0 147
-75 0 -75 0 0 -395z"/>
<path d="M8780 4705 l0 -395 59 0 c56 0 59 1 71 30 14 34 22 37 41 13 42 -49
153 -67 224 -34 83 37 124 114 132 241 12 190 -57 313 -181 327 -68 8 -113 -4
-157 -44 l-39 -35 0 146 0 146 -75 0 -75 0 0 -395z m304 51 c45 -19 66 -67 66
-154 0 -116 -33 -172 -102 -172 -74 0 -104 36 -109 130 -5 104 0 137 26 169
22 26 35 32 78 40 4 0 22 -5 41 -13z"/>
<path d="M6597 5060 c-109 -19 -206 -99 -248 -208 -29 -75 -33 -248 -7 -333
34 -110 117 -187 227 -210 65 -13 187 -6 246 14 l40 14 3 68 c3 62 1 67 -15
60 -53 -20 -163 -37 -206 -31 -115 17 -176 150 -147 320 14 75 40 120 89 153
45 30 130 31 202 3 29 -12 55 -17 59 -13 4 4 16 32 28 61 l21 53 -42 19 c-39
18 -154 41 -187 39 -8 -1 -36 -5 -63 -9z"/>
<path d="M4720 4990 l0 -70 100 0 100 0 0 -305 0 -305 80 0 80 0 0 305 0 305
100 0 100 0 0 70 0 70 -280 0 -280 0 0 -70z"/>
<path d="M8385 4963 c-9 -20 -18 -46 -21 -58 -3 -11 -25 -33 -50 -49 -38 -24
-44 -32 -44 -62 0 -32 2 -34 34 -34 l34 0 3 -173 c5 -187 12 -216 70 -259 34
-25 131 -34 198 -18 l51 12 0 59 0 59 -27 -7 c-16 -4 -45 -7 -66 -7 -62 -1
-67 14 -67 186 l0 148 80 0 80 0 0 60 0 60 -80 0 -80 0 0 60 0 60 -50 0 c-48
0 -50 -1 -65 -37z"/>
<path d="M10145 4963 c-9 -20 -18 -46 -21 -58 -3 -11 -25 -33 -50 -49 -38 -24
-44 -32 -44 -62 0 -32 2 -34 34 -34 l34 0 3 -173 c5 -187 12 -216 70 -259 34
-25 131 -34 198 -18 l51 12 0 59 0 59 -27 -7 c-16 -4 -45 -7 -66 -7 -62 -1
-67 14 -67 186 l0 148 80 0 80 0 0 60 0 60 -80 0 -80 0 0 60 0 60 -50 0 c-48
0 -50 -1 -65 -37z"/>
<path d="M7789 4871 c-83 -27 -82 -25 -53 -82 19 -39 29 -49 42 -44 48 19 144
37 167 31 39 -10 65 -41 65 -80 l0 -33 -104 -5 c-122 -5 -186 -31 -224 -88
-20 -30 -23 -45 -20 -102 6 -102 56 -158 150 -166 72 -6 132 12 178 54 l39 35
12 -40 12 -41 54 0 53 0 0 220 c0 236 -5 264 -51 307 -58 53 -209 69 -320 34z
m221 -338 c0 -56 -31 -100 -80 -113 -70 -19 -110 3 -110 59 0 26 7 44 23 58
30 28 42 31 110 32 l57 1 0 -37z"/>
<path d="M9582 4875 c-62 -19 -109 -59 -139 -118 -38 -74 -44 -207 -14 -289
81 -213 402 -226 502 -20 19 39 23 64 23 142 1 113 -23 179 -85 234 -66 60
-189 82 -287 51z m172 -134 c29 -25 46 -75 46 -138 0 -120 -35 -174 -112 -175
-56 -1 -81 13 -102 56 -23 48 -22 179 2 226 28 57 117 74 166 31z"/>
<path d="M5380 4679 c0 -116 5 -219 11 -245 30 -119 172 -170 298 -108 29 15
55 33 58 40 9 24 22 16 31 -18 8 -32 10 -33 70 -36 l62 -3 0 286 0 285 -80 0
-80 0 -1 -172 c0 -107 -5 -186 -12 -207 -26 -75 -126 -103 -173 -48 -24 28
-24 32 -24 228 l0 199 -80 0 -80 0 0 -201z"/>
</g>
</svg>
