<?xml version="1.0" encoding="UTF-8"?>
<svg xmlns="http://www.w3.org/2000/svg" xmlns:xlink="http://www.w3.org/1999/xlink" width="1670px" height="616px" viewBox="0 0 1670 616" version="1.1">
<g id="surface1">
<path style=" stroke:none;fill-rule:nonzero;fill:rgb(0%,0%,0%);fill-opacity:1;" d="M 615.425781 221.074219 C 581.253906 222.5 546.617188 228.375 521.101562 237.101562 L 511.515625 240.355469 L 497.445312 238.527344 C 440.539062 231.285156 391.058594 234.59375 357.347656 247.882812 C 322.402344 261.6875 315.445312 285.070312 339.257812 309.3125 C 370.027344 340.683594 446.105469 366.464844 524.8125 372.167969 C 541.511719 373.363281 570.738281 373.078125 585.273438 371.652344 C 616.042969 368.515625 640.628906 360.988281 654.855469 350.265625 C 658.257812 347.699219 661.503906 345.644531 662.125 345.644531 C 662.742188 345.644531 669.546875 344.046875 677.277344 342.164062 C 736.035156 327.679688 772.53125 298.875 765.417969 272.464844 C 758.613281 246.628906 718.253906 227.75 657.949219 222.214844 C 648.207031 221.304688 624.703125 220.675781 615.425781 221.074219 Z M 658.414062 227.0625 C 680.214844 229.117188 704.027344 234.707031 718.875 241.265625 C 754.746094 257.179688 763.5625 280.734375 742.066406 303.265625 C 716.707031 329.675781 654.546875 347.925781 589.757812 347.925781 C 570.121094 347.925781 556.046875 346.671875 537.339844 343.363281 C 474.867188 332.296875 447.652344 301.667969 473.941406 272.238281 C 484.144531 260.886719 500.070312 251.191406 521.71875 243.261719 C 561.769531 228.605469 611.40625 222.671875 658.414062 227.0625 Z M 658.414062 227.0625 "/>
<path style=" stroke:none;fill-rule:nonzero;fill:rgb(0%,0%,0%);fill-opacity:1;" d="M 907.210938 258.207031 C 906.59375 258.378906 906.128906 266.363281 906.128906 275.886719 L 906.128906 293.171875 L 924.683594 293.171875 L 924.683594 257.808594 L 916.488281 257.808594 C 911.851562 257.808594 907.675781 257.980469 907.210938 258.207031 Z M 907.210938 258.207031 "/>
<path style=" stroke:none;fill-rule:nonzero;fill:rgb(0%,0%,0%);fill-opacity:1;" d="M 948.1875 258.71875 C 945.871094 259.289062 944.785156 260.144531 944.785156 261.515625 C 944.785156 263.738281 947.878906 264.652344 955.457031 264.652344 C 964.890625 264.652344 968.136719 259.574219 959.320312 258.378906 C 953.910156 257.578125 952.210938 257.636719 948.1875 258.71875 Z M 948.1875 258.71875 "/>
<path style=" stroke:none;fill-rule:nonzero;fill:rgb(0%,0%,0%);fill-opacity:1;" d="M 1053.027344 258.207031 C 1046.84375 259.003906 1044.832031 262.140625 1049.625 263.683594 C 1053.183594 264.878906 1061.378906 264.9375 1064.46875 263.738281 C 1071.894531 261.058594 1063.234375 256.835938 1053.027344 258.207031 Z M 1053.027344 258.207031 "/>
<path style=" stroke:none;fill-rule:nonzero;fill:rgb(0%,0%,0%);fill-opacity:1;" d="M 836.238281 265.90625 C 833.144531 269.15625 826.03125 276.628906 820.464844 282.503906 L 810.414062 293.226562 L 820.773438 293.054688 L 831.132812 292.886719 L 834.070312 289.007812 L 837.164062 285.183594 L 870.101562 285.183594 L 873.039062 289.007812 L 876.132812 292.886719 L 886.644531 293.054688 C 892.367188 293.171875 896.851562 293 896.542969 292.714844 C 896.386719 292.429688 889.121094 284.957031 880.769531 276.171875 L 865.308594 260.089844 L 841.648438 260.089844 Z M 859.429688 272.292969 C 862.214844 275.546875 864.378906 278.511719 864.378906 278.855469 C 864.378906 279.253906 860.359375 279.480469 853.554688 279.480469 C 847.679688 279.480469 842.730469 279.308594 842.730469 279.023438 C 842.730469 278.054688 852.78125 266.363281 853.554688 266.363281 C 854.175781 266.363281 856.804688 269.042969 859.429688 272.292969 Z M 859.429688 272.292969 "/>
<path style=" stroke:none;fill-rule:nonzero;fill:rgb(0%,0%,0%);fill-opacity:1;" d="M 998.445312 268.300781 C 987.308594 269.785156 981.125 273.09375 979.425781 278.453125 C 977.414062 284.785156 983.445312 290.203125 994.886719 292.429688 C 1000.609375 293.570312 1020.554688 293.742188 1027.203125 292.714844 C 1030.914062 292.144531 1031.378906 291.800781 1031.378906 289.179688 C 1031.378906 287.636719 1031.070312 286.324219 1030.761719 286.324219 C 1030.453125 286.324219 1027.667969 286.726562 1024.730469 287.179688 C 1021.636719 287.636719 1016.535156 288.035156 1013.597656 288.035156 C 1006.175781 288.035156 999.0625 285.527344 998.753906 282.789062 C 997.980469 277.257812 1001.070312 274.007812 1007.566406 273.4375 C 1011.585938 273.035156 1021.019531 273.378906 1025.660156 274.0625 C 1027.667969 274.40625 1028.75 274.007812 1030.605469 272.410156 C 1031.84375 271.324219 1032.925781 270.011719 1032.925781 269.613281 C 1032.925781 267.730469 1009.730469 266.875 998.445312 268.300781 Z M 998.445312 268.300781 "/>
<path style=" stroke:none;fill-rule:nonzero;fill:rgb(0%,0%,0%);fill-opacity:1;" d="M 1096.015625 268.359375 C 1091.839844 268.871094 1088.59375 269.5 1088.59375 269.84375 C 1088.59375 270.296875 1092.769531 273.664062 1094.003906 274.234375 C 1094.160156 274.292969 1096.789062 273.949219 1099.878906 273.492188 C 1108.539062 272.179688 1118.746094 272.351562 1121.683594 273.890625 C 1127.40625 276.859375 1125.394531 277.371094 1105.445312 278 C 1089.210938 278.453125 1081.789062 280.964844 1081.945312 285.8125 C 1082.097656 288.835938 1084.882812 290.890625 1090.757812 292.316406 C 1099.261719 294.367188 1113.953125 293.855469 1121.683594 291.175781 L 1126.011719 289.75 L 1127.714844 291.460938 C 1129.261719 293 1130.1875 293.171875 1136.0625 293.171875 L 1142.714844 293.171875 L 1142.714844 283.589844 C 1142.714844 273.148438 1141.476562 271.269531 1133.125 268.988281 C 1127.40625 267.503906 1106.53125 267.160156 1096.015625 268.359375 Z M 1124.15625 283.246094 C 1124.15625 284.730469 1122.921875 285.699219 1119.671875 286.953125 C 1112.40625 289.632812 1100.964844 288.949219 1100.964844 285.871094 C 1100.964844 283.304688 1104.210938 282.277344 1113.332031 281.761719 C 1117.972656 281.535156 1122.300781 281.308594 1123.074219 281.25 C 1123.695312 281.25 1124.15625 282.105469 1124.15625 283.246094 Z M 1124.15625 283.246094 "/>
<path style=" stroke:none;fill-rule:nonzero;fill:rgb(0%,0%,0%);fill-opacity:1;" d="M 944.785156 280.621094 L 944.785156 293.171875 L 963.34375 293.171875 L 963.34375 268.074219 L 944.785156 268.074219 Z M 944.785156 280.621094 "/>
<path style=" stroke:none;fill-rule:nonzero;fill:rgb(0%,0%,0%);fill-opacity:1;" d="M 1048.390625 280.621094 L 1048.390625 293.171875 L 1066.945312 293.171875 L 1066.945312 268.074219 L 1048.390625 268.074219 Z M 1048.390625 280.621094 "/>
<path style=" stroke:none;fill-rule:nonzero;fill:rgb(0%,0%,0%);fill-opacity:1;" d="M 1088.59375 339.941406 L 1088.59375 357.621094 L 1107.148438 357.621094 L 1107.148438 349.636719 C 1107.148438 339.199219 1109.003906 337.660156 1121.683594 337.660156 C 1130.960938 337.660156 1131.890625 338.628906 1131.890625 348.667969 L 1131.890625 357.621094 L 1152.453125 357.621094 L 1151.679688 347.753906 C 1151.21875 339.199219 1150.597656 337.601562 1147.96875 335.890625 C 1141.011719 331.386719 1120.136719 330.53125 1109.3125 334.292969 L 1106.066406 335.378906 L 1106.21875 328.988281 L 1106.375 322.542969 L 1097.5625 322.375 L 1088.59375 322.203125 Z M 1088.59375 339.941406 "/>
<path style=" stroke:none;fill-rule:nonzero;fill:rgb(0%,0%,0%);fill-opacity:1;" d="M 1301.519531 322.660156 C 1300.898438 322.828125 1300.433594 330.816406 1300.433594 340.339844 L 1300.433594 357.621094 L 1308.167969 357.621094 C 1315.125 357.621094 1315.898438 357.449219 1316.824219 356.195312 C 1317.910156 354.484375 1319.144531 354.429688 1322.855469 355.910156 C 1326.566406 357.449219 1336 358.421875 1342.496094 357.964844 C 1357.183594 356.9375 1364.453125 352.773438 1364.605469 345.074219 C 1364.605469 341.023438 1363.988281 339.769531 1360.742188 337.375 C 1352.699219 331.386719 1335.382812 330.074219 1322.546875 334.40625 L 1318.992188 335.550781 L 1318.992188 322.257812 L 1310.796875 322.257812 C 1306.15625 322.257812 1301.980469 322.429688 1301.519531 322.660156 Z M 1341.566406 338.855469 C 1343.730469 339.769531 1344.660156 341.136719 1344.96875 344.445312 C 1345.585938 348.554688 1345.277344 348.953125 1341.410156 350.664062 C 1333.835938 354.027344 1322.855469 352.601562 1320.382812 347.925781 C 1318.679688 344.503906 1320.382812 339.996094 1323.785156 338.742188 C 1327.960938 337.203125 1337.699219 337.316406 1341.566406 338.855469 Z M 1341.566406 338.855469 "/>
<path style=" stroke:none;fill-rule:nonzero;fill:rgb(0%,0%,0%);fill-opacity:1;" d="M 1036.480469 324.539062 C 1015.296875 326.367188 1002.464844 334.691406 1006.175781 344.277344 C 1009.269531 352.203125 1018.390625 356.308594 1035.554688 357.679688 C 1044.367188 358.308594 1055.8125 358.078125 1065.089844 356.996094 C 1069.726562 356.425781 1070.035156 356.253906 1070.035156 353.574219 C 1070.035156 352.03125 1069.882812 350.777344 1069.574219 350.777344 C 1069.417969 350.777344 1064.46875 351.121094 1058.75 351.578125 C 1045.761719 352.601562 1038.800781 352.203125 1033.082031 350.265625 C 1027.667969 348.382812 1025.195312 345.417969 1025.195312 340.796875 C 1025.195312 336.804688 1029.679688 332.980469 1036.328125 331.15625 C 1041.585938 329.789062 1052.71875 329.730469 1061.070312 331.042969 C 1064.316406 331.554688 1067.097656 331.957031 1067.410156 331.957031 C 1068.953125 331.957031 1073.285156 326.652344 1072.203125 326.25 C 1070.035156 325.453125 1052.875 323.96875 1046.84375 324.027344 C 1043.90625 324.085938 1039.265625 324.253906 1036.480469 324.539062 Z M 1036.480469 324.539062 "/>
<path style=" stroke:none;fill-rule:nonzero;fill:rgb(0%,0%,0%);fill-opacity:1;" d="M 813.351562 327.394531 L 813.351562 330.246094 L 836.546875 330.246094 L 836.546875 357.621094 L 856.648438 357.621094 L 856.648438 330.246094 L 879.84375 330.246094 L 879.84375 324.539062 L 813.351562 324.539062 Z M 813.351562 327.394531 "/>
<path style=" stroke:none;fill-rule:nonzero;fill:rgb(0%,0%,0%);fill-opacity:1;" d="M 1253.273438 328.875 C 1252.035156 330.015625 1250.953125 331.214844 1250.953125 331.5 C 1250.953125 331.785156 1248.480469 332.527344 1245.542969 333.152344 C 1241.367188 334.066406 1240.128906 334.691406 1240.128906 336.003906 C 1240.128906 337.375 1240.75 337.660156 1243.839844 337.660156 C 1247.550781 337.660156 1247.550781 337.714844 1248.171875 345.1875 C 1249.097656 355.453125 1251.570312 357.222656 1266.726562 357.964844 C 1270.4375 358.136719 1276.3125 358.019531 1280.023438 357.679688 C 1286.363281 356.996094 1286.519531 356.9375 1286.519531 354.597656 L 1286.519531 352.148438 L 1278.476562 352.203125 C 1267.808594 352.203125 1266.417969 351.292969 1266.417969 343.476562 L 1266.417969 337.660156 L 1286.519531 337.660156 L 1286.519531 332.582031 L 1276.929688 332.410156 L 1267.191406 332.242188 L 1266.726562 329.503906 C 1266.261719 326.878906 1266.105469 326.820312 1261.003906 326.820312 C 1256.367188 326.820312 1255.285156 327.105469 1253.273438 328.875 Z M 1253.273438 328.875 "/>
<path style=" stroke:none;fill-rule:nonzero;fill:rgb(0%,0%,0%);fill-opacity:1;" d="M 1465.117188 328.875 C 1463.878906 330.015625 1462.796875 331.214844 1462.796875 331.5 C 1462.796875 331.785156 1460.320312 332.527344 1457.382812 333.152344 C 1453.210938 334.066406 1451.972656 334.691406 1451.972656 336.003906 C 1451.972656 337.375 1452.589844 337.660156 1455.683594 337.660156 C 1459.394531 337.660156 1459.394531 337.714844 1460.011719 345.1875 C 1460.941406 355.453125 1463.414062 357.222656 1478.570312 357.964844 C 1482.28125 358.136719 1488.15625 358.019531 1491.867188 357.679688 C 1498.207031 356.996094 1498.359375 356.9375 1498.359375 354.597656 L 1498.359375 352.148438 L 1490.320312 352.203125 C 1479.652344 352.203125 1478.257812 351.292969 1478.257812 343.476562 L 1478.257812 337.660156 L 1498.359375 337.660156 L 1498.359375 332.582031 L 1488.773438 332.410156 L 1479.03125 332.242188 L 1478.570312 329.503906 C 1478.105469 326.878906 1477.949219 326.820312 1472.847656 326.820312 C 1468.207031 326.820312 1467.125 327.105469 1465.117188 328.875 Z M 1465.117188 328.875 "/>
<path style=" stroke:none;fill-rule:nonzero;fill:rgb(0%,0%,0%);fill-opacity:1;" d="M 1181.988281 332.753906 C 1171.9375 333.894531 1171.785156 334.066406 1175.183594 336.519531 L 1178.277344 338.742188 L 1184.617188 337.945312 C 1197.761719 336.234375 1207.65625 337.089844 1207.65625 339.941406 C 1207.65625 340.910156 1207.503906 341.652344 1207.347656 341.707031 C 1207.039062 341.707031 1201.316406 341.9375 1194.515625 342.164062 C 1179.980469 342.679688 1172.246094 343.875 1168.535156 346.15625 C 1162.816406 349.75 1166.988281 355.339844 1176.730469 357.222656 C 1184.773438 358.761719 1196.988281 358.191406 1204.566406 355.96875 L 1210.441406 354.199219 L 1212.140625 355.910156 C 1213.535156 357.449219 1214.460938 357.621094 1219.875 357.621094 L 1226.214844 357.621094 L 1226.214844 347.582031 C 1226.214844 336.121094 1225.285156 335.035156 1214.617188 333.097656 C 1207.195312 331.785156 1191.886719 331.613281 1181.988281 332.753906 Z M 1207.65625 347.867188 C 1207.65625 350.835938 1203.792969 352.488281 1195.90625 352.886719 C 1190.492188 353.117188 1189.101562 353.003906 1186.9375 351.863281 C 1183.691406 350.148438 1183.84375 349.464844 1187.402344 347.867188 C 1189.410156 346.898438 1192.503906 346.441406 1198.535156 346.15625 C 1203.171875 345.988281 1207.039062 345.757812 1207.347656 345.703125 C 1207.503906 345.703125 1207.65625 346.671875 1207.65625 347.867188 Z M 1207.65625 347.867188 "/>
<path style=" stroke:none;fill-rule:nonzero;fill:rgb(0%,0%,0%);fill-opacity:1;" d="M 1393.832031 333.039062 C 1379.449219 335.433594 1372.492188 342.734375 1377.90625 349.808594 C 1379.761719 352.316406 1387.027344 355.570312 1393.832031 356.878906 C 1399.707031 358.078125 1418.570312 358.191406 1424.140625 357.109375 C 1439.757812 354.085938 1446.097656 347.296875 1440.375 340.113281 C 1437.746094 336.859375 1430.167969 333.78125 1422.285156 332.753906 C 1414.398438 331.671875 1401.097656 331.839844 1393.832031 333.039062 Z M 1418.726562 338.800781 C 1424.757812 341.253906 1424.140625 349.578125 1417.800781 351.460938 C 1413.003906 352.945312 1404.65625 352.773438 1400.324219 351.175781 C 1393.675781 348.722656 1393.214844 342.109375 1399.707031 339.085938 C 1403.726562 337.203125 1414.398438 337.03125 1418.726562 338.800781 Z M 1418.726562 338.800781 "/>
<path style=" stroke:none;fill-rule:nonzero;fill:rgb(0%,0%,0%);fill-opacity:1;" d="M 892.214844 341.765625 C 892.214844 351.917969 894.222656 354.882812 901.800781 356.710938 C 910.460938 358.820312 927.777344 358.25 934.890625 355.625 L 938.445312 354.3125 L 939.992188 355.96875 C 941.386719 357.449219 942.160156 357.621094 948.5 357.621094 L 955.609375 357.621094 L 955.609375 332.527344 L 937.054688 332.527344 L 937.054688 339.941406 C 937.054688 347.925781 935.199219 350.722656 929.632812 351.863281 C 924.53125 352.886719 917.726562 352.601562 914.480469 351.292969 C 911.851562 350.265625 911.542969 349.007812 911.078125 341.308594 L 910.613281 332.527344 L 892.214844 332.527344 Z M 892.214844 341.765625 "/>
</g>
</svg>
