<?xml version="1.0" standalone="no"?>
<!DOCTYPE svg PUBLIC "-//W3C//DTD SVG 20010904//EN"
 "http://www.w3.org/TR/2001/REC-SVG-20010904/DTD/svg10.dtd">
<svg version="1.0" xmlns="http://www.w3.org/2000/svg"
 width="1080.000000pt" height="1080.000000pt" viewBox="0 0 1080.000000 1080.000000"
 preserveAspectRatio="xMidYMid meet">

<g transform="translate(0.000000,1080.000000) scale(0.100000,-0.100000)"
fill="#000000" stroke="none">
<path d="M3980 6924 c-221 -25 -445 -128 -610 -281 l-62 -57 -91 32 c-368 127
-688 69 -906 -164 -226 -242 -271 -652 -117 -1077 199 -550 691 -1002 1200
-1102 108 -21 297 -16 391 9 199 55 358 187 450 375 22 45 43 81 47 81 4 0 48
28 98 61 380 254 616 759 570 1222 -44 453 -305 784 -695 881 -63 16 -215 27
-275 20z m278 -105 c141 -36 295 -134 391 -249 232 -279 289 -692 150 -1087
-164 -463 -566 -783 -985 -783 -127 0 -218 22 -339 80 -404 194 -580 731 -410
1247 66 199 169 369 309 508 259 257 580 361 884 284z"/>
<path d="M5867 6273 c-4 -3 -7 -143 -7 -310 l0 -303 60 0 60 0 0 310 0 310
-53 0 c-30 0 -57 -3 -60 -7z"/>
<path d="M6132 6264 c-15 -10 -22 -25 -22 -49 0 -39 20 -55 69 -55 61 0 82 89
25 110 -35 14 -46 13 -72 -6z"/>
<path d="M6810 6273 c-40 -14 -53 -69 -22 -96 23 -21 76 -22 96 -1 48 47 -8
121 -74 97z"/>
<path d="M5408 6138 c-20 -57 -66 -188 -102 -291 l-65 -188 67 3 67 3 19 68
20 67 106 0 107 0 19 -67 20 -68 68 -3 c37 -2 66 1 64 6 -1 5 -48 136 -102
290 l-100 282 -76 0 -77 0 -35 -102z m150 -112 c18 -57 32 -109 32 -115 0 -7
-26 -11 -70 -11 -38 0 -70 3 -70 8 0 17 65 222 70 222 4 0 21 -47 38 -104z"/>
<path d="M6457 6096 c-72 -26 -112 -84 -123 -178 -13 -111 26 -206 100 -245
37 -20 166 -23 209 -5 24 10 27 16 27 62 0 27 -2 50 -4 50 -2 0 -20 -7 -39
-15 -20 -8 -53 -15 -72 -15 -48 0 -94 44 -96 92 -5 97 15 154 57 164 26 7 87
1 117 -11 13 -6 20 1 32 29 8 19 15 42 15 49 0 33 -150 48 -223 23z"/>
<path d="M7088 6095 c-27 -9 -48 -20 -48 -26 0 -8 27 -67 35 -77 1 -1 18 5 38
13 56 23 122 20 141 -7 37 -52 24 -61 -105 -72 -105 -8 -153 -52 -152 -137 1
-53 19 -89 57 -114 55 -36 150 -27 200 20 l28 25 11 -30 c10 -27 16 -30 54
-30 l43 0 0 168 c0 183 -8 216 -62 256 -37 26 -172 32 -240 11z m182 -261 c0
-26 -8 -43 -29 -65 -47 -47 -121 -35 -121 19 0 45 21 63 80 72 30 4 58 8 63 9
4 0 7 -15 7 -35z"/>
<path d="M6110 5880 l0 -220 60 0 60 0 0 220 0 220 -60 0 -60 0 0 -220z"/>
<path d="M6780 5880 l0 -220 60 0 60 0 0 220 0 220 -60 0 -60 0 0 -220z"/>
<path d="M7040 4840 l0 -310 60 0 60 0 0 140 c0 183 12 210 94 210 60 0 66
-17 66 -193 l0 -157 66 0 67 0 -5 173 c-3 150 -7 178 -24 208 -45 79 -180 94
-250 28 l-21 -19 1 112 1 113 -57 3 -58 3 0 -311z"/>
<path d="M8417 5143 c-4 -3 -7 -143 -7 -310 l0 -303 50 0 c45 0 50 3 56 25 7
30 15 31 39 5 24 -27 85 -44 127 -36 95 18 142 91 143 226 0 71 -4 93 -25 135
-52 105 -164 128 -247 52 l-23 -20 0 116 0 117 -53 0 c-30 0 -57 -3 -60 -7z
m259 -284 c14 -16 20 -40 22 -98 4 -72 2 -79 -23 -109 -49 -59 -120 -34 -136
48 -11 60 0 139 22 161 27 27 90 25 115 -2z"/>
<path d="M6703 5110 c-137 -32 -220 -178 -196 -346 20 -139 79 -211 190 -235
57 -11 131 -7 191 12 30 10 32 13 32 60 0 27 -1 49 -3 49 -1 0 -33 -6 -70 -14
-84 -18 -129 -11 -166 23 -35 33 -51 85 -51 166 0 70 29 137 72 169 34 24 106
25 160 2 21 -9 39 -16 41 -16 10 0 38 93 31 100 -14 14 -125 40 -164 39 -19
-1 -49 -4 -67 -9z"/>
<path d="M5260 5060 l0 -50 75 0 75 0 0 -240 0 -240 65 0 65 0 0 240 0 240 75
0 75 0 0 50 0 50 -215 0 -215 0 0 -50z"/>
<path d="M8105 5034 c-8 -20 -15 -41 -15 -46 0 -5 -16 -18 -35 -29 -27 -16
-35 -27 -35 -50 0 -24 4 -29 24 -29 24 0 24 -1 28 -132 6 -180 22 -211 120
-224 24 -3 62 -1 86 5 41 12 42 13 42 54 l0 43 -52 -1 c-69 0 -78 16 -78 153
l0 102 65 0 65 0 0 45 0 44 -62 3 -63 3 -3 48 c-3 46 -4 47 -37 47 -30 0 -37
-5 -50 -36z"/>
<path d="M9475 5034 c-8 -20 -15 -41 -15 -46 0 -5 -16 -18 -35 -29 -27 -16
-35 -27 -35 -50 0 -24 4 -29 24 -29 24 0 24 -1 28 -132 6 -180 22 -211 120
-224 24 -3 62 -1 86 5 41 12 42 13 42 54 l0 43 -52 -1 c-69 0 -78 16 -78 153
l0 102 65 0 65 0 0 45 0 44 -62 3 -63 3 -3 48 c-3 46 -4 47 -37 47 -30 0 -37
-5 -50 -36z"/>
<path d="M7644 4966 c-65 -20 -66 -23 -44 -66 l20 -39 41 14 c85 30 149 15
149 -35 0 -17 -1 -30 -2 -31 -2 0 -39 -4 -83 -8 -94 -9 -144 -30 -168 -70 -37
-63 -10 -161 53 -194 52 -27 131 -17 180 22 l38 31 11 -30 c9 -27 15 -30 50
-30 l41 0 0 176 c0 201 -6 220 -75 254 -48 23 -147 26 -211 6z m166 -265 c0
-52 -25 -81 -76 -88 -35 -4 -44 -2 -58 18 -21 30 -20 42 3 70 13 17 33 25 72
30 30 3 55 7 57 8 1 0 2 -17 2 -38z"/>
<path d="M9014 4961 c-93 -42 -138 -170 -103 -294 12 -44 59 -101 103 -124 38
-21 160 -23 196 -4 101 53 142 172 105 298 -17 57 -66 111 -117 129 -51 19
-137 16 -184 -5z m161 -101 c39 -43 35 -189 -6 -222 -31 -26 -85 -23 -113 5
-43 43 -46 159 -4 212 26 33 95 36 123 5z"/>
<path d="M5770 4808 c0 -178 13 -230 62 -262 56 -37 168 -27 214 19 l23 23 10
-29 c9 -26 14 -29 55 -29 l46 0 0 220 0 220 -60 0 -60 0 0 -130 c0 -140 -12
-189 -48 -209 -33 -18 -77 -13 -98 10 -17 18 -19 40 -22 175 l-3 154 -60 0
-59 0 0 -162z"/>
</g>
</svg>
